# xmcd CD database file
#
# Track frame offsets:
#	150
#	14497
#	30642
#	44172
#	55497
#	70647
#
# Disc length: 1082 seconds
#
# Revision: 1
# Processed by: cddbd v1.4PL0 Copyright (c) Steve Scherf et al.
# Submitted via: CDex 1.50
#
DISCID=51043806
DTITLE=Jason und die Argonauten - live!
DYEAR=1996
DGENRE=Jazz
TTITLE0=Stuck On You
TTITLE1=Green, Green Gras Of Home
TTITLE2=I'll Be Home For Christmas
TTITLE3=Wenn Teenager Träumen
TTITLE4=Heartbreak Hotel
TTITLE5=She's Not A Lady
EXTD=YEAR: 1996
EXTT0=
EXTT1=
EXTT2=
EXTT3=
EXTT4=
EXTT5=
PLAYORDER=
